<svg width="370" height="68" viewBox="0 0 370 68" fill="none" xmlns="http://www.w3.org/2000/svg">
<path d="M12.216 36.104C14.52 33.928 16.3973 32.1573 17.848 30.792C19.3413 29.4267 20.088 28.5733 20.088 28.232C20.088 28.0187 20.024 27.8907 19.896 27.848C19.768 27.8053 19.6613 27.784 19.576 27.784H19.128C18.9573 27.784 18.68 27.72 18.296 27.592C17.9547 27.4213 17.784 27.1013 17.784 26.632C17.784 25.992 18.296 25.5227 19.32 25.224C20.344 24.9253 21.6453 24.776 23.224 24.776C27.1493 24.776 29.88 24.904 31.416 25.16C32.952 25.416 33.72 25.7573 33.72 26.184C33.72 26.5253 33.6133 26.8027 33.4 27.016C33.1867 27.2293 32.824 27.4 32.312 27.528C31.8427 27.656 31.1813 27.7627 30.328 27.848C29.5173 27.9333 28.4933 28.0187 27.256 28.104C26.4027 28.1893 25.7413 28.4667 25.272 28.936L17.976 35.848C19.384 35.848 20.6 35.9973 21.624 36.296C22.648 36.5947 23.48 37.128 24.12 37.896C24.76 38.6213 25.2293 39.624 25.528 40.904C25.8693 42.1413 26.04 43.6987 26.04 45.576V48.648C26.04 49.7573 26.104 50.632 26.232 51.272C26.36 51.8693 26.5093 52.3387 26.68 52.68C26.8933 53.0213 27.1067 53.2347 27.32 53.32C27.5333 53.4053 27.7253 53.448 27.896 53.448C28.152 53.448 28.408 53.3627 28.664 53.192C28.92 53.0213 29.048 52.7013 29.048 52.232C29.048 50.7813 29.752 50.056 31.16 50.056C31.8853 50.056 32.3547 50.312 32.568 50.824C32.824 51.2933 32.952 51.8267 32.952 52.424C32.952 53.832 32.4187 55.0267 31.352 56.008C30.2853 57.032 28.9413 57.544 27.32 57.544C25.528 57.544 24.12 56.9467 23.096 55.752C22.072 54.6 21.56 52.616 21.56 49.8V45.576C21.56 44.2107 21.4533 43.1013 21.24 42.248C21.0267 41.3947 20.664 40.7333 20.152 40.264C19.64 39.752 18.9573 39.4107 18.104 39.24C17.2507 39.0267 16.184 38.92 14.904 38.92L12.216 41.16V49.736H16.12C17.1013 49.736 17.8267 49.9493 18.296 50.376C18.7653 50.8027 19 51.3573 19 52.04C19 52.5947 18.7867 52.9573 18.36 53.128C17.9333 53.2987 17.464 53.384 16.952 53.384C16.0133 53.384 15.0107 53.3627 13.944 53.32C12.92 53.2773 11.5973 53.256 9.976 53.256C9.29333 53.256 8.48267 53.2773 7.544 53.32C6.648 53.3627 5.90133 53.384 5.304 53.384C4.57867 53.384 3.93867 53.2773 3.384 53.064C2.82933 52.8507 2.552 52.4027 2.552 51.72C2.552 51.1227 2.85067 50.7173 3.448 50.504C4.088 50.248 5.15467 49.9493 6.648 49.608C7.032 49.5227 7.26667 49.2667 7.352 48.84C7.48 48.3707 7.544 47.5173 7.544 46.28C7.544 44.9573 7.544 43.8907 7.544 43.08C7.58667 42.2267 7.608 41.48 7.608 40.84C7.65067 40.2 7.672 39.5813 7.672 38.984C7.71467 38.3867 7.736 37.6827 7.736 36.872C7.77867 36.0613 7.8 35.0587 7.8 33.864C7.84267 32.6693 7.864 31.1547 7.864 29.32C7.864 26.248 7.84267 23.5173 7.8 21.128C7.8 18.696 7.77867 16.5413 7.736 14.664C7.69333 12.744 7.65067 11.08 7.608 9.672C7.608 8.22133 7.608 6.92 7.608 5.768C7.608 4.78666 7.13867 4.296 6.2 4.296H3C2.488 4.296 1.95467 4.21066 1.4 4.04C0.845333 3.86933 0.568 3.528 0.568 3.016C0.568 2.41867 1.35733 1.88533 2.936 1.416C4.51467 0.946664 7.07467 0.711998 10.616 0.711998C11.6827 0.711998 12.216 1.33066 12.216 2.568V36.104ZM46.5455 49.288H50.1935C51.1322 49.288 51.8788 49.3947 52.4335 49.608C52.9882 49.8213 53.2655 50.3547 53.2655 51.208C53.2655 51.7627 53.0735 52.2107 52.6895 52.552C52.3055 52.8507 51.8575 53 51.3455 53H39.8895C39.3775 53 38.8442 53 38.2895 53C37.7775 52.9573 37.3082 52.8933 36.8815 52.808C36.4975 52.68 36.1562 52.5093 35.8575 52.296C35.6015 52.04 35.4735 51.6987 35.4735 51.272C35.4735 50.888 35.5588 50.5893 35.7295 50.376C35.9002 50.1627 36.1562 50.0133 36.4975 49.928C36.8388 49.8 37.2228 49.7147 37.6495 49.672C38.1188 49.5867 38.6522 49.5013 39.2495 49.416C40.1882 49.288 40.8282 49.16 41.1695 49.032C41.5108 48.8613 41.7242 48.5413 41.8095 48.072C41.9375 46.7067 42.0015 45.2347 42.0015 43.656C42.0442 42.0347 42.0655 40.6053 42.0655 39.368C42.0655 37.7467 42.0442 36.1893 42.0015 34.696C41.9588 33.2027 41.8948 31.6453 41.8095 30.024C41.7668 29.512 41.6815 29.1067 41.5535 28.808C41.4255 28.4667 41.1908 28.296 40.8495 28.296C40.6788 28.296 40.3375 28.3173 39.8255 28.36C39.3562 28.4027 38.8442 28.4453 38.2895 28.488C37.7775 28.488 37.2868 28.5093 36.8175 28.552C36.3482 28.5947 36.0282 28.616 35.8575 28.616C35.5162 28.616 35.1322 28.5093 34.7055 28.296C34.2788 28.0827 34.0655 27.848 34.0655 27.592C34.0655 27.08 34.1722 26.696 34.3855 26.44C34.5988 26.184 34.8975 25.992 35.2815 25.864C35.7082 25.736 36.1988 25.6507 36.7535 25.608C37.3508 25.5653 38.0122 25.5013 38.7375 25.416C39.2922 25.3733 39.8895 25.3307 40.5295 25.288C41.1695 25.2453 41.7882 25.2027 42.3855 25.16C43.0255 25.1173 43.6015 25.096 44.1135 25.096C44.6255 25.096 45.0522 25.096 45.3935 25.096C45.9055 25.096 46.2255 25.3093 46.3535 25.736C46.4815 26.12 46.5455 26.6533 46.5455 27.336V49.288ZM40.0815 15.88C40.0815 15.5813 40.1455 15.2187 40.2735 14.792C40.4442 14.3227 40.6575 13.896 40.9135 13.512C41.2122 13.128 41.5962 12.808 42.0655 12.552C42.5348 12.2533 43.0895 12.104 43.7295 12.104C44.5828 12.104 45.3295 12.424 45.9695 13.064C46.6095 13.6613 46.9295 14.5147 46.9295 15.624C46.9295 17.16 46.5028 18.2267 45.6495 18.824C44.8388 19.4213 44.0495 19.72 43.2815 19.72C42.3855 19.72 41.6175 19.3573 40.9775 18.632C40.3802 17.9067 40.0815 16.9893 40.0815 15.88ZM58.833 27.144C58.0223 27.144 57.105 27.1653 56.081 27.208C55.057 27.2507 54.161 27.272 53.393 27.272C53.137 27.272 52.7743 27.144 52.305 26.888C51.793 26.632 51.537 26.12 51.537 25.352C51.537 24.7547 51.7503 24.328 52.177 24.072C52.6037 23.7733 53.1157 23.5813 53.713 23.496L56.977 23.176C57.8303 23.0907 58.3423 22.8987 58.513 22.6C58.6837 22.2587 58.769 21.7253 58.769 21C58.769 20.104 58.769 19.144 58.769 18.12C58.8117 17.0533 58.9397 16.0933 59.153 15.24C59.3663 14.3867 59.7077 13.8747 60.177 13.704C60.6463 13.5333 60.9877 13.448 61.201 13.448C61.7557 13.448 62.2463 13.5973 62.673 13.896C63.0997 14.152 63.313 14.92 63.313 16.2V23.048C63.6117 23.048 64.1877 23.048 65.041 23.048C65.8943 23.0053 66.7903 22.9627 67.729 22.92C68.7103 22.8773 69.6063 22.856 70.417 22.856C71.2277 22.8133 71.761 22.792 72.017 22.792C72.529 22.792 73.041 22.9413 73.553 23.24C74.065 23.496 74.321 23.9653 74.321 24.648C74.321 25.2453 74.129 25.6933 73.745 25.992C73.361 26.248 72.977 26.4187 72.593 26.504C71.057 26.6747 69.4783 26.7813 67.857 26.824C66.2783 26.8667 64.7637 26.9307 63.313 27.016V43.272C63.313 43.9547 63.3557 44.68 63.441 45.448C63.5263 46.216 63.6757 46.9413 63.889 47.624C64.145 48.264 64.4863 48.7973 64.913 49.224C65.3823 49.6507 66.001 49.864 66.769 49.864C67.4517 49.864 68.0063 49.7573 68.433 49.544C68.8597 49.288 69.2223 48.9893 69.521 48.648C69.8197 48.3067 70.0543 47.944 70.225 47.56C70.3957 47.176 70.545 46.8133 70.673 46.472C70.801 46.1307 70.9077 45.7893 70.993 45.448C71.121 45.1067 71.2703 44.808 71.441 44.552C71.6117 44.2533 71.8463 44.0187 72.145 43.848C72.4437 43.6773 72.849 43.592 73.361 43.592C73.7023 43.592 73.9797 43.6773 74.193 43.848C74.4063 44.0187 74.5557 44.2107 74.641 44.424C74.769 44.6373 74.8543 44.8507 74.897 45.064C74.9397 45.2773 74.961 45.4267 74.961 45.512C74.961 46.1093 74.7903 46.8773 74.449 47.816C74.1077 48.7547 73.553 49.672 72.785 50.568C72.0597 51.4213 71.121 52.168 69.969 52.808C68.817 53.4053 67.4517 53.704 65.873 53.704C63.441 53.704 61.649 52.8293 60.497 51.08C60.0703 50.44 59.729 49.7573 59.473 49.032C59.2597 48.264 59.089 47.496 58.961 46.728C58.833 45.9173 58.7477 45.1493 58.705 44.424C58.705 43.6987 58.705 43.0373 58.705 42.44L58.833 27.144ZM96.873 38.664C96.873 38.1947 96.873 37.7467 96.873 37.32C96.9157 36.8507 96.937 36.5093 96.937 36.296C96.937 33.48 96.3397 31.2827 95.145 29.704C93.993 28.0827 92.137 27.272 89.577 27.272C88.8517 27.272 88.0837 27.3573 87.273 27.528C86.4623 27.656 85.7157 27.8693 85.033 28.168C84.393 28.424 83.8383 28.7653 83.369 29.192C82.9423 29.576 82.729 30.024 82.729 30.536C82.729 30.8773 82.8357 31.112 83.049 31.24C83.2623 31.3253 83.5823 31.4107 84.009 31.496C84.3077 31.5387 84.649 31.7093 85.033 32.008C85.417 32.3067 85.609 32.7973 85.609 33.48C85.609 34.2053 85.353 34.7813 84.841 35.208C84.329 35.592 83.6463 35.784 82.793 35.784C81.4703 35.784 80.5317 35.3147 79.977 34.376C79.4223 33.4373 79.145 32.4133 79.145 31.304C79.145 29 80.1263 27.1227 82.089 25.672C84.0517 24.1787 86.7183 23.432 90.089 23.432C97.641 23.432 101.417 27.592 101.417 35.912C101.417 36.3813 101.396 37 101.353 37.768C101.353 38.536 101.332 39.368 101.289 40.264C101.289 41.1173 101.268 41.992 101.225 42.888C101.225 43.7413 101.225 44.488 101.225 45.128C101.225 47.0907 101.31 48.3707 101.481 48.968C101.652 49.5653 102.036 49.864 102.633 49.864C103.102 49.864 103.401 49.7147 103.529 49.416C103.7 49.1173 103.828 48.6907 103.913 48.136C103.956 47.88 104.105 47.5813 104.361 47.24C104.617 46.8987 105.044 46.728 105.641 46.728C106.196 46.728 106.558 46.9413 106.729 47.368C106.9 47.7947 106.985 48.2853 106.985 48.84C106.985 49.736 106.836 50.504 106.537 51.144C106.281 51.7413 105.918 52.232 105.449 52.616C104.98 53 104.446 53.2773 103.849 53.448C103.294 53.6187 102.697 53.704 102.057 53.704C100.905 53.704 99.8597 53.4267 98.921 52.872C98.025 52.2747 97.385 51.2933 97.001 49.928C95.6357 51.1653 94.121 52.104 92.457 52.744C90.8357 53.384 89.0223 53.704 87.017 53.704C84.0303 53.704 81.641 53.0213 79.849 51.656C78.0997 50.2907 77.225 48.456 77.225 46.152C77.225 44.9147 77.481 43.7627 77.993 42.696C78.505 41.6293 79.2303 40.712 80.169 39.944C81.1077 39.176 82.217 38.5787 83.497 38.152C84.8197 37.6827 86.2917 37.448 87.913 37.448C91.1983 37.448 94.185 38.4293 96.873 40.392V38.664ZM81.769 46.088C81.769 47.368 82.4303 48.328 83.753 48.968C85.0757 49.5653 86.6543 49.864 88.489 49.864C89.641 49.864 90.7077 49.7573 91.689 49.544C92.713 49.288 93.609 48.968 94.377 48.584C95.145 48.2 95.7423 47.752 96.169 47.24C96.6383 46.6853 96.873 46.088 96.873 45.448C96.873 44.8507 96.681 44.296 96.297 43.784C95.913 43.272 95.3797 42.8453 94.697 42.504C94.0143 42.12 93.225 41.8213 92.329 41.608C91.4757 41.3947 90.537 41.288 89.513 41.288C88.4037 41.288 87.3797 41.416 86.441 41.672C85.5023 41.8853 84.6917 42.2053 84.009 42.632C83.3263 43.0587 82.7717 43.5707 82.345 44.168C81.961 44.7653 81.769 45.4053 81.769 46.088ZM105.819 58.056C105.819 58.9093 105.605 59.5707 105.178 60.04C104.752 60.552 104.112 60.8507 103.258 60.936C102.576 61.0213 102.234 61.4267 102.234 62.152C102.234 62.4507 102.512 62.8133 103.066 63.24C103.621 63.7093 104.73 63.944 106.395 63.944C108.571 63.944 110.256 63.2187 111.451 61.768C112.645 60.36 113.413 58.2907 113.755 55.56C113.883 54.4507 113.968 52.936 114.01 51.016C114.096 49.096 114.16 47.112 114.203 45.064C114.245 43.016 114.267 41.096 114.267 39.304C114.267 37.4693 114.267 36.104 114.267 35.208V29.448C114.267 28.7653 114.139 28.3813 113.883 28.296C113.627 28.168 113.221 28.104 112.667 28.104H106.907C105.285 28.104 104.474 27.6773 104.474 26.824C104.474 26.3973 104.688 26.056 105.114 25.8C105.541 25.544 106.245 25.352 107.227 25.224C108.251 25.0533 109.552 24.9467 111.131 24.904C112.752 24.8613 114.736 24.84 117.083 24.84C117.765 24.84 118.171 25.0533 118.299 25.48C118.469 25.864 118.555 26.4613 118.555 27.272C118.555 27.5707 118.555 28.296 118.555 29.448C118.555 30.5573 118.533 31.88 118.491 33.416C118.491 34.9093 118.469 36.5093 118.427 38.216C118.427 39.9227 118.405 41.544 118.363 43.08C118.363 44.5733 118.363 45.8747 118.363 46.984C118.363 48.0933 118.363 48.7973 118.363 49.096C118.363 49.5227 118.341 50.0347 118.299 50.632C118.299 51.2293 118.277 51.848 118.235 52.488C118.192 53.128 118.149 53.7253 118.107 54.28C118.064 54.8773 118.021 55.3893 117.979 55.816C117.68 58.12 117.147 60.04 116.379 61.576C115.611 63.1547 114.693 64.392 113.627 65.288C112.56 66.2267 111.387 66.888 110.107 67.272C108.869 67.6987 107.589 67.912 106.267 67.912C104.858 67.912 103.664 67.6773 102.682 67.208C101.658 66.7813 100.826 66.2267 100.186 65.544C99.5465 64.8613 99.0772 64.0933 98.7785 63.24C98.4798 62.3867 98.3305 61.5333 98.3305 60.68C98.3305 58.9307 98.7785 57.608 99.6745 56.712C100.528 55.8587 101.488 55.432 102.554 55.432C103.365 55.432 104.112 55.6453 104.794 56.072C105.477 56.4987 105.819 57.16 105.819 58.056ZM111.707 15.88C111.707 15.5813 111.771 15.2187 111.899 14.792C112.069 14.3227 112.283 13.896 112.539 13.512C112.837 13.128 113.221 12.808 113.691 12.552C114.16 12.2533 114.715 12.104 115.355 12.104C116.208 12.104 116.955 12.424 117.595 13.064C118.235 13.6613 118.555 14.5147 118.555 15.624C118.555 17.16 118.128 18.2267 117.275 18.824C116.464 19.4213 115.675 19.72 114.907 19.72C114.011 19.72 113.243 19.3573 112.603 18.632C112.005 17.9067 111.707 16.9893 111.707 15.88ZM143.623 38.664C143.623 38.1947 143.623 37.7467 143.623 37.32C143.666 36.8507 143.687 36.5093 143.687 36.296C143.687 33.48 143.09 31.2827 141.895 29.704C140.743 28.0827 138.887 27.272 136.327 27.272C135.602 27.272 134.834 27.3573 134.023 27.528C133.212 27.656 132.466 27.8693 131.783 28.168C131.143 28.424 130.588 28.7653 130.119 29.192C129.692 29.576 129.479 30.024 129.479 30.536C129.479 30.8773 129.586 31.112 129.799 31.24C130.012 31.3253 130.332 31.4107 130.759 31.496C131.058 31.5387 131.399 31.7093 131.783 32.008C132.167 32.3067 132.359 32.7973 132.359 33.48C132.359 34.2053 132.103 34.7813 131.591 35.208C131.079 35.592 130.396 35.784 129.543 35.784C128.22 35.784 127.282 35.3147 126.727 34.376C126.172 33.4373 125.895 32.4133 125.895 31.304C125.895 29 126.876 27.1227 128.839 25.672C130.802 24.1787 133.468 23.432 136.839 23.432C144.391 23.432 148.167 27.592 148.167 35.912C148.167 36.3813 148.146 37 148.103 37.768C148.103 38.536 148.082 39.368 148.039 40.264C148.039 41.1173 148.018 41.992 147.975 42.888C147.975 43.7413 147.975 44.488 147.975 45.128C147.975 47.0907 148.06 48.3707 148.231 48.968C148.402 49.5653 148.786 49.864 149.383 49.864C149.852 49.864 150.151 49.7147 150.279 49.416C150.45 49.1173 150.578 48.6907 150.663 48.136C150.706 47.88 150.855 47.5813 151.111 47.24C151.367 46.8987 151.794 46.728 152.391 46.728C152.946 46.728 153.308 46.9413 153.479 47.368C153.65 47.7947 153.735 48.2853 153.735 48.84C153.735 49.736 153.586 50.504 153.287 51.144C153.031 51.7413 152.668 52.232 152.199 52.616C151.73 53 151.196 53.2773 150.599 53.448C150.044 53.6187 149.447 53.704 148.807 53.704C147.655 53.704 146.61 53.4267 145.671 52.872C144.775 52.2747 144.135 51.2933 143.751 49.928C142.386 51.1653 140.871 52.104 139.207 52.744C137.586 53.384 135.772 53.704 133.767 53.704C130.78 53.704 128.391 53.0213 126.599 51.656C124.85 50.2907 123.975 48.456 123.975 46.152C123.975 44.9147 124.231 43.7627 124.743 42.696C125.255 41.6293 125.98 40.712 126.919 39.944C127.858 39.176 128.967 38.5787 130.247 38.152C131.57 37.6827 133.042 37.448 134.663 37.448C137.948 37.448 140.935 38.4293 143.623 40.392V38.664ZM128.519 46.088C128.519 47.368 129.18 48.328 130.503 48.968C131.826 49.5653 133.404 49.864 135.239 49.864C136.391 49.864 137.458 49.7573 138.439 49.544C139.463 49.288 140.359 48.968 141.127 48.584C141.895 48.2 142.492 47.752 142.919 47.24C143.388 46.6853 143.623 46.088 143.623 45.448C143.623 44.8507 143.431 44.296 143.047 43.784C142.663 43.272 142.13 42.8453 141.447 42.504C140.764 42.12 139.975 41.8213 139.079 41.608C138.226 41.3947 137.287 41.288 136.263 41.288C135.154 41.288 134.13 41.416 133.191 41.672C132.252 41.8853 131.442 42.2053 130.759 42.632C130.076 43.0587 129.522 43.5707 129.095 44.168C128.711 44.7653 128.519 45.4053 128.519 46.088ZM163.001 2.76C163.001 3.82666 162.979 4.95733 162.937 6.152C162.937 7.304 162.937 8.392 162.937 9.416C162.937 10.3973 162.937 11.2293 162.937 11.912C162.937 12.552 162.937 12.8933 162.937 12.936C162.937 22.5787 162.958 30.344 163.001 36.232C163.043 42.12 163.065 46.4933 163.065 49.352H166.009C167.331 49.352 168.185 49.5653 168.569 49.992C168.995 50.4187 169.208 50.888 169.208 51.4C169.208 51.7413 169.017 52.104 168.633 52.488C168.291 52.872 167.673 53.064 166.777 53.064C166.478 53.064 166.073 53.0427 165.561 53C165.049 53 164.494 53 163.897 53C163.342 52.9573 162.745 52.936 162.105 52.936C161.507 52.8933 160.931 52.872 160.377 52.872C159.95 52.872 159.459 52.8933 158.905 52.936C158.393 52.936 157.859 52.936 157.305 52.936C156.793 52.936 156.281 52.9573 155.769 53C155.299 53 154.894 53 154.553 53C153.529 53 152.803 52.8293 152.377 52.488C151.992 52.104 151.8 51.72 151.8 51.336C151.8 50.696 151.971 50.2693 152.312 50.056C152.654 49.8 152.931 49.672 153.145 49.672L155.257 49.544C157.177 49.416 158.179 48.7547 158.265 47.56C158.307 46.3653 158.35 45.1067 158.393 43.784C158.435 42.4613 158.478 40.968 158.521 39.304C158.563 37.64 158.585 35.7627 158.585 33.672C158.585 31.5813 158.585 29.2133 158.585 26.568C158.585 23.8373 158.585 21.448 158.585 19.4C158.585 17.3093 158.563 15.4533 158.521 13.832C158.521 12.168 158.521 10.6747 158.521 9.352C158.521 8.02933 158.521 6.74933 158.521 5.512C158.521 4.82933 158.457 4.36 158.329 4.104C158.201 3.848 157.859 3.72 157.305 3.72H153.337C152.441 3.72 151.736 3.63466 151.224 3.464C150.67 3.25066 150.392 2.888 150.392 2.376C150.392 1.94933 150.712 1.62933 151.352 1.416C151.95 1.16 152.697 0.967997 153.593 0.839996C154.531 0.711998 155.513 0.626664 156.536 0.583996C157.561 0.54133 158.499 0.519997 159.353 0.519997C160.547 0.519997 161.443 0.626663 162.041 0.839996C162.681 1.01066 163.001 1.65066 163.001 2.76ZM189.936 38.664C189.936 38.1947 189.936 37.7467 189.936 37.32C189.978 36.8507 190 36.5093 190 36.296C190 33.48 189.402 31.2827 188.208 29.704C187.056 28.0827 185.2 27.272 182.64 27.272C181.914 27.272 181.146 27.3573 180.336 27.528C179.525 27.656 178.778 27.8693 178.095 28.168C177.455 28.424 176.901 28.7653 176.432 29.192C176.005 29.576 175.792 30.024 175.792 30.536C175.792 30.8773 175.898 31.112 176.112 31.24C176.325 31.3253 176.645 31.4107 177.072 31.496C177.37 31.5387 177.712 31.7093 178.095 32.008C178.48 32.3067 178.672 32.7973 178.672 33.48C178.672 34.2053 178.416 34.7813 177.904 35.208C177.392 35.592 176.709 35.784 175.856 35.784C174.533 35.784 173.594 35.3147 173.04 34.376C172.485 33.4373 172.208 32.4133 172.208 31.304C172.208 29 173.189 27.1227 175.152 25.672C177.114 24.1787 179.781 23.432 183.152 23.432C190.704 23.432 194.48 27.592 194.48 35.912C194.48 36.3813 194.458 37 194.416 37.768C194.416 38.536 194.394 39.368 194.352 40.264C194.352 41.1173 194.33 41.992 194.288 42.888C194.288 43.7413 194.288 44.488 194.288 45.128C194.288 47.0907 194.373 48.3707 194.544 48.968C194.714 49.5653 195.098 49.864 195.696 49.864C196.165 49.864 196.464 49.7147 196.592 49.416C196.762 49.1173 196.89 48.6907 196.976 48.136C197.018 47.88 197.168 47.5813 197.424 47.24C197.68 46.8987 198.106 46.728 198.704 46.728C199.258 46.728 199.621 46.9413 199.792 47.368C199.962 47.7947 200.048 48.2853 200.048 48.84C200.048 49.736 199.898 50.504 199.6 51.144C199.344 51.7413 198.981 52.232 198.512 52.616C198.042 53 197.509 53.2773 196.912 53.448C196.357 53.6187 195.76 53.704 195.12 53.704C193.968 53.704 192.922 53.4267 191.984 52.872C191.088 52.2747 190.448 51.2933 190.064 49.928C188.698 51.1653 187.184 52.104 185.52 52.744C183.898 53.384 182.085 53.704 180.08 53.704C177.093 53.704 174.704 53.0213 172.911 51.656C171.162 50.2907 170.288 48.456 170.288 46.152C170.288 44.9147 170.544 43.7627 171.056 42.696C171.568 41.6293 172.293 40.712 173.232 39.944C174.17 39.176 175.28 38.5787 176.56 38.152C177.882 37.6827 179.354 37.448 180.976 37.448C184.261 37.448 187.248 38.4293 189.936 40.392V38.664ZM174.832 46.088C174.832 47.368 175.493 48.328 176.816 48.968C178.138 49.5653 179.717 49.864 181.552 49.864C182.704 49.864 183.77 49.7573 184.752 49.544C185.776 49.288 186.672 48.968 187.44 48.584C188.208 48.2 188.805 47.752 189.232 47.24C189.701 46.6853 189.936 46.088 189.936 45.448C189.936 44.8507 189.744 44.296 189.36 43.784C188.976 43.272 188.442 42.8453 187.76 42.504C187.077 42.12 186.288 41.8213 185.392 41.608C184.538 41.3947 183.6 41.288 182.576 41.288C181.466 41.288 180.442 41.416 179.504 41.672C178.565 41.8853 177.754 42.2053 177.072 42.632C176.389 43.0587 175.834 43.5707 175.408 44.168C175.024 44.7653 174.832 45.4053 174.832 46.088ZM231.329 51.144H234.785C235.084 51.144 235.425 51.1653 235.809 51.208C236.236 51.2507 236.641 51.3573 237.025 51.528C237.409 51.656 237.729 51.8693 237.985 52.168C238.241 52.424 238.369 52.7867 238.369 53.256C238.369 53.896 238.134 54.3227 237.665 54.536C237.196 54.7493 236.641 54.856 236.001 54.856C235.788 54.856 235.084 54.856 233.889 54.856C232.737 54.8987 231.457 54.92 230.049 54.92C228.684 54.92 227.404 54.92 226.209 54.92C225.057 54.9627 224.396 54.984 224.225 54.984C223.67 54.984 223.18 54.856 222.753 54.6C222.326 54.3867 222.113 53.9173 222.113 53.192C222.113 52.5947 222.305 52.168 222.689 51.912C223.116 51.6133 223.521 51.4213 223.905 51.336C224.972 51.208 225.676 51.016 226.017 50.76C226.358 50.504 226.572 49.864 226.657 48.84C226.742 47.1333 226.785 45.6827 226.785 44.488C226.828 43.2933 226.849 42.6533 226.849 42.568C226.849 40.6053 226.764 38.728 226.593 36.936C226.465 35.1013 226.166 33.5227 225.697 32.2C225.27 30.8347 224.63 29.7467 223.777 28.936C222.966 28.1253 221.857 27.72 220.449 27.72C218.657 27.72 217.057 28.3387 215.649 29.576C214.284 30.7707 213.238 32.1787 212.513 33.8C212.044 34.7813 211.681 35.9333 211.425 37.256C211.212 38.536 211.105 39.816 211.105 41.096V48.264H215.393C216.118 48.264 216.716 48.392 217.185 48.648C217.654 48.904 217.889 49.4587 217.889 50.312C217.889 51.0373 217.676 51.5067 217.249 51.72C216.865 51.9333 216.246 52.04 215.393 52.04C215.222 52.04 214.561 52.04 213.409 52.04C212.3 52.04 211.062 52.0613 209.697 52.104C208.332 52.104 207.052 52.104 205.857 52.104C204.705 52.104 204.022 52.104 203.809 52.104C203.126 52.104 202.486 52.0187 201.889 51.848C201.334 51.6773 201.057 51.1867 201.057 50.376C201.057 49.608 201.313 49.096 201.825 48.84C202.38 48.584 202.913 48.456 203.425 48.456H204.705C205.089 48.456 205.388 48.3493 205.601 48.136C205.857 47.88 206.049 47.5813 206.177 47.24C206.305 46.856 206.39 46.472 206.433 46.088C206.476 45.704 206.497 45.3413 206.497 45C206.497 44.2747 206.518 43.1227 206.561 41.544C206.604 39.9227 206.646 38.2587 206.689 36.552C206.732 34.8453 206.753 33.3093 206.753 31.944C206.796 30.5787 206.817 29.768 206.817 29.512C206.817 28.104 206.454 27.4 205.729 27.4H202.401C201.974 27.4 201.505 27.4 200.993 27.4C200.524 27.3573 200.076 27.3147 199.649 27.272C199.265 27.1867 198.924 27.08 198.625 26.952C198.369 26.7813 198.241 26.568 198.241 26.312C198.241 25.8853 198.39 25.544 198.689 25.288C199.03 24.9893 199.606 24.7547 200.417 24.584C201.228 24.4133 202.294 24.3067 203.617 24.264C204.982 24.1787 206.689 24.136 208.737 24.136C209.846 24.136 210.529 24.264 210.785 24.52C211.041 24.776 211.19 25.3307 211.233 26.184L211.425 30.152C212.364 28.1467 213.772 26.6107 215.649 25.544C217.526 24.4347 219.532 23.88 221.665 23.88C222.604 23.88 223.628 24.0507 224.737 24.392C225.889 24.6907 226.956 25.3093 227.937 26.248C228.918 27.144 229.729 28.4027 230.369 30.024C231.009 31.6453 231.329 33.7573 231.329 36.36V51.144ZM240.132 50.824C240.132 50.44 240.196 50.056 240.324 49.672C240.452 49.2453 240.665 48.8613 240.964 48.52C241.262 48.1787 241.646 47.9013 242.116 47.688C242.628 47.432 243.225 47.304 243.908 47.304C245.188 47.304 246.126 47.6667 246.724 48.392C247.321 49.1173 247.62 49.8853 247.62 50.696C247.62 51.592 247.278 52.4027 246.595 53.128C245.955 53.8533 245.017 54.216 243.78 54.216C242.457 54.216 241.518 53.832 240.964 53.064C240.409 52.3387 240.132 51.592 240.132 50.824ZM275.011 25.608C274.968 25.1387 274.925 24.584 274.883 23.944C274.883 23.304 274.883 22.6853 274.883 22.088C274.883 21.6187 275.032 21.2133 275.331 20.872C275.629 20.488 276.141 20.296 276.867 20.296C277.592 20.296 278.125 20.488 278.467 20.872C278.808 21.256 278.979 21.768 278.979 22.408C278.979 23.0053 278.979 23.7947 278.979 24.776C278.979 25.7573 278.957 26.7813 278.915 27.848C278.915 28.872 278.915 29.8747 278.915 30.856C278.915 31.8373 278.915 32.6053 278.915 33.16C278.915 33.5013 278.68 33.8213 278.211 34.12C277.784 34.4187 277.251 34.568 276.611 34.568C276.269 34.568 275.885 34.4613 275.459 34.248C275.075 34.0347 274.883 33.6933 274.883 33.224C274.883 31.0053 274.307 29.256 273.155 27.976C272.003 26.6533 269.997 25.992 267.139 25.992C265.731 25.992 264.408 26.312 263.171 26.952C261.976 27.5493 260.952 28.4027 260.099 29.512C259.245 30.6213 258.563 31.944 258.051 33.48C257.581 34.9733 257.347 36.6373 257.347 38.472C257.347 41.8427 258.136 44.5093 259.715 46.472C261.336 48.4347 263.597 49.416 266.499 49.416C268.973 49.416 271.043 48.968 272.707 48.072C274.371 47.176 275.587 46.088 276.355 44.808C276.781 44.1253 277.165 43.6773 277.507 43.464C277.891 43.2507 278.232 43.144 278.531 43.144C279 43.144 279.427 43.272 279.811 43.528C280.237 43.784 280.451 44.2107 280.451 44.808C280.451 45.1493 280.387 45.448 280.259 45.704C280.173 45.9173 280.024 46.1947 279.811 46.536C276.824 51.1013 272.472 53.384 266.755 53.384C264.493 53.384 262.467 53 260.675 52.232C258.925 51.464 257.432 50.4187 256.195 49.096C255 47.7307 254.061 46.152 253.379 44.36C252.739 42.568 252.419 40.648 252.419 38.6C252.419 36.296 252.781 34.1413 253.507 32.136C254.275 30.1307 255.32 28.4027 256.643 26.952C257.965 25.4587 259.544 24.2853 261.379 23.432C263.213 22.5787 265.197 22.152 267.331 22.152C268.952 22.152 270.403 22.3867 271.683 22.856C272.963 23.2827 274.072 24.2 275.011 25.608ZM313.812 38.088C313.812 40.6907 313.343 42.9733 312.405 44.936C311.466 46.8987 310.25 48.5413 308.757 49.864C307.306 51.144 305.663 52.104 303.829 52.744C301.994 53.384 300.181 53.704 298.389 53.704C296.213 53.704 294.229 53.3413 292.437 52.616C290.645 51.848 289.087 50.7813 287.765 49.416C286.485 48.0507 285.482 46.4293 284.757 44.552C284.031 42.632 283.669 40.5413 283.669 38.28C283.669 36.0613 284.031 34.0133 284.757 32.136C285.482 30.216 286.506 28.5733 287.829 27.208C289.194 25.8427 290.815 24.776 292.693 24.008C294.613 23.1973 296.767 22.792 299.157 22.792C301.546 22.792 303.637 23.2187 305.429 24.072C307.263 24.8827 308.799 25.992 310.037 27.4C311.274 28.808 312.213 30.4293 312.853 32.264C313.493 34.0987 313.812 36.04 313.812 38.088ZM299.093 26.632C297.685 26.632 296.341 26.888 295.061 27.4C293.781 27.912 292.65 28.6587 291.669 29.64C290.687 30.6213 289.898 31.8373 289.301 33.288C288.746 34.7387 288.469 36.3813 288.469 38.216C288.469 40.1787 288.767 41.8853 289.365 43.336C290.005 44.7867 290.815 46.0027 291.797 46.984C292.778 47.9227 293.866 48.6267 295.061 49.096C296.255 49.5653 297.407 49.8 298.517 49.8C299.626 49.8 300.799 49.5653 302.037 49.096C303.274 48.6267 304.426 47.9227 305.493 46.984C306.559 46.0027 307.434 44.7653 308.117 43.272C308.799 41.7787 309.141 40.008 309.141 37.96C309.141 36.296 308.885 34.7813 308.373 33.416C307.903 32.008 307.221 30.8133 306.325 29.832C305.471 28.808 304.426 28.0187 303.189 27.464C301.951 26.9093 300.586 26.632 299.093 26.632ZM362.6 50.696H366.248C367.656 50.696 368.552 50.9093 368.936 51.336C369.32 51.7627 369.512 52.1467 369.512 52.488C369.512 52.9573 369.298 53.3413 368.872 53.64C368.445 53.9813 367.805 54.1733 366.952 54.216C366.61 54.216 365.992 54.216 365.096 54.216C364.2 54.2587 363.24 54.28 362.216 54.28C361.192 54.3227 360.189 54.344 359.208 54.344C358.269 54.344 357.544 54.344 357.032 54.344C355.24 54.344 354.045 54.1947 353.448 53.896C352.893 53.5973 352.616 53.0853 352.616 52.36C352.616 51.2507 353.213 50.6533 354.408 50.568L356.328 50.44C356.754 50.3973 357.074 50.2907 357.288 50.12C357.544 49.9067 357.714 49.352 357.8 48.456C357.842 48.1573 357.885 47.688 357.928 47.048C357.97 46.3653 358.013 45.5973 358.056 44.744C358.098 43.848 358.141 42.9093 358.184 41.928C358.226 40.904 358.248 39.9013 358.248 38.92C358.248 35.1227 357.864 32.4347 357.096 30.856C356.37 29.2347 355.112 28.424 353.319 28.424C352.296 28.424 351.336 28.616 350.44 29C349.586 29.384 348.797 29.896 348.072 30.536C347.346 31.1333 346.706 31.8373 346.152 32.648C345.597 33.416 345.128 34.2267 344.744 35.08V48.84H348.2C349.181 48.84 349.821 49.0533 350.12 49.48C350.418 49.9067 350.568 50.312 350.568 50.696C350.568 51.2507 350.418 51.6773 350.12 51.976C349.864 52.232 349.544 52.36 349.16 52.36C348.989 52.36 348.413 52.36 347.432 52.36C346.45 52.36 345.362 52.3813 344.168 52.424C343.016 52.424 341.906 52.424 340.84 52.424C339.816 52.424 339.154 52.424 338.856 52.424C337.789 52.424 337.021 52.3173 336.552 52.104C336.082 51.848 335.848 51.3573 335.848 50.632C335.848 50.12 335.976 49.6933 336.232 49.352C336.53 49.0107 336.914 48.8187 337.384 48.776L338.024 48.712C339.005 48.6267 339.645 48.3493 339.944 47.88C340.242 47.368 340.392 46.7493 340.392 46.024C340.392 45.2987 340.37 44.5307 340.328 43.72C340.328 42.9093 340.328 41.6933 340.328 40.072C340.328 39.9867 340.328 39.5387 340.328 38.728C340.328 37.9173 340.306 37.0213 340.264 36.04C340.178 33.736 339.794 32.008 339.112 30.856C338.472 29.6613 337.405 29.064 335.912 29.064C334.717 29.064 333.586 29.2773 332.52 29.704C331.496 30.1307 330.6 30.7707 329.832 31.624C329.064 32.4773 328.445 33.544 327.976 34.824C327.549 36.104 327.336 37.576 327.336 39.24V49.224H330.088C331.453 49.224 332.392 49.48 332.904 49.992C333.416 50.4613 333.672 50.952 333.672 51.464C333.672 51.8053 333.522 52.1467 333.224 52.488C332.968 52.7867 332.456 52.936 331.688 52.936C331.517 52.936 331.304 52.936 331.048 52.936C330.792 52.936 330.258 52.936 329.448 52.936C328.68 52.8933 327.506 52.872 325.928 52.872C324.349 52.872 322.13 52.872 319.272 52.872C318.674 52.872 318.226 52.68 317.928 52.296C317.672 51.8693 317.544 51.4427 317.544 51.016C317.544 50.6747 317.672 50.3333 317.928 49.992C318.184 49.608 318.61 49.416 319.208 49.416C319.762 49.416 320.21 49.416 320.552 49.416C320.936 49.3733 321.234 49.288 321.448 49.16C321.661 49.032 321.832 48.8187 321.96 48.52C322.088 48.2213 322.194 47.7947 322.28 47.24C322.365 46.5147 322.493 45.1493 322.664 43.144C322.877 41.1387 322.984 38.792 322.984 36.104C322.984 34.4827 322.941 33.2027 322.856 32.264C322.77 31.3253 322.642 30.6213 322.472 30.152C322.344 29.64 322.173 29.32 321.96 29.192C321.746 29.064 321.533 29 321.32 29H320.488C317.373 29 315.816 28.5307 315.816 27.592C315.816 27.208 316.072 26.888 316.584 26.632C317.096 26.376 317.8 26.184 318.696 26.056C319.592 25.8853 320.658 25.7787 321.896 25.736C323.133 25.6507 324.456 25.608 325.864 25.608C326.205 25.608 326.461 25.7147 326.632 25.928C326.802 26.0987 326.909 26.4613 326.952 27.016L327.144 31.176C327.912 29.2987 329.106 27.848 330.728 26.824C332.349 25.7573 334.205 25.224 336.296 25.224C340.221 25.224 342.845 27.08 344.168 30.792C345.405 28.7013 346.856 27.144 348.52 26.12C350.226 25.096 352.082 24.584 354.088 24.584C356.52 24.584 358.546 25.416 360.168 27.08C361.789 28.7013 362.6 31.3253 362.6 34.952V50.696Z" fill="url(#paint0_linear_215_4)"/>
<defs>
<linearGradient id="paint0_linear_215_4" x1="186" y1="-9" x2="186" y2="69" gradientUnits="userSpaceOnUse">
<stop offset="0.588542" stop-color="#BDFF01"/>
<stop offset="0.911458" stop-color="#FF0000"/>
</linearGradient>
</defs>
</svg>
